Coordinates
version=1
nRows=20
nColumns=38
inDegrees=no

Units are S.I. units (second, meters, Newtons, ...)
If the header above contains a line with 'inDegrees', this indicates whether rotational values are in degrees (yes) or radians (no).

endheader
time	pelvis_tilt	pelvis_list	pelvis_rotation	pelvis_tx	pelvis_ty	pelvis_tz	hip_flexion_r	hip_adduction_r	hip_rotation_r	knee_angle_r	ankle_angle_r	subtalar_angle_r	mtp_angle_r	hip_flexion_l	hip_adduction_l	hip_rotation_l	knee_angle_l	ankle_angle_l	subtalar_angle_l	mtp_angle_l	lumbar_extension	lumbar_bending	lumbar_rotation	arm_flex_r	arm_add_r	arm_rot_r	elbow_flex_r	pro_sup_r	wrist_flex_r	wrist_dev_r	arm_flex_l	arm_add_l	arm_rot_l	elbow_flex_l	pro_sup_l	wrist_flex_l	wrist_dev_l
1.94	-1.8452	1.48753	0.377912	0.729434	-0.568049	1.05167	0.00722192	0.104798	-0.392622	0.16197	-0.0939848	0	0	0.270995	-0.222919	-0.130552	1.05205	-0.12	0	0	-0.158097	0.0950532	0.00357322	-0.0671008	-0.23231	0.0740424	0.756748	1.5708	0	0	-0.111341	-0.306377	0.362626	0.742122	1.16298	0	0
1.95	-1.90321	1.49024	0.432868	0.72914	-0.579773	1.05233	-0.00555074	0.102375	-0.395047	0.152855	-0.0982384	0	0	0.286314	-0.216946	-0.131044	1.01745	-0.11078	0	0	-0.156434	0.0878895	0.00978313	-0.0617947	-0.235547	0.0736664	0.77114	1.5708	0	0	-0.120225	-0.304967	0.354	0.744282	1.15511	0	0
1.96	-1.96338	1.4922	0.489828	0.728882	-0.591375	1.05276	-0.0183634	0.100691	-0.394764	0.142736	-0.109149	0	0	0.300161	-0.211037	-0.130377	0.977113	-0.0983179	0	0	-0.155198	0.0814116	0.0157706	-0.0561851	-0.239242	0.0736422	0.786003	1.5708	0	0	-0.129478	-0.301362	0.339281	0.746218	1.15385	0	0
1.97	-2.09182	1.48893	0.618628	0.728893	-0.602515	1.05237	-0.0224855	0.100316	-0.393905	0.133846	-0.108516	0	0	0.317384	-0.197002	-0.0776889	0.922	-0.0927982	0	0	-0.146058	0.076976	0.0182646	-0.0511213	-0.242529	0.072322	0.800211	1.5708	0	0	-0.13543	-0.301381	0.339313	0.745683	1.14407	0	0
1.98	-2.14775	1.48903	0.672146	0.728958	-0.614331	1.05237	-0.0349965	0.0994143	-0.395973	0.124345	-0.11241	0	0	0.328678	-0.192848	-0.0818269	0.871417	-0.088976	0	0	-0.144029	0.0723531	0.0226603	-0.0465074	-0.246881	0.0712605	0.816711	1.5708	0	0	-0.142741	-0.299034	0.332909	0.744988	1.14148	0	0
1.99	-2.0377	1.50178	0.551838	0.728794	-0.627024	1.05377	-0.0678843	0.0944786	-0.398623	0.114113	-0.118826	0	0	0.323757	-0.202708	-0.197413	0.831835	-0.0944914	0	0	-0.162686	0.0641361	0.0342763	-0.0413495	-0.252404	0.0694389	0.837674	1.5708	0	0	-0.149245	-0.296372	0.32426	0.747131	1.14106	0	0
2	-2.03782	1.50617	0.545784	0.728747	-0.638785	1.05391	-0.0862756	0.0917539	-0.395452	0.1055	-0.122205	0	0	0.325131	-0.198644	-0.224272	0.772886	-0.100224	0	0	-0.16901	0.058202	0.0414387	-0.0359256	-0.256994	0.0670721	0.857056	1.5708	0	0	-0.154443	-0.294519	0.319871	0.746948	1.14103	0	0
2.01	-2.01143	1.51104	0.513445	0.728777	-0.650566	1.05394	-0.106401	0.0891787	-0.391619	0.0968415	-0.127466	0	0	0.322566	-0.193747	-0.250163	0.707932	-0.11638	0	0	-0.177567	0.0527345	0.0480224	-0.0306583	-0.261966	0.0650648	0.877736	1.5708	0	0	-0.159902	-0.290665	0.309348	0.746872	1.14801	0	0
2.02	-2.04309	1.51264	0.541785	0.729148	-0.662521	1.05331	-0.120751	0.0873449	-0.390596	0.0908896	-0.128003	0	0	0.3243	-0.186542	-0.267489	0.639134	-0.124227	0	0	-0.179406	0.0491637	0.0522483	-0.0280178	-0.263928	0.0563725	0.897567	1.5708	0	0	-0.164307	-0.288425	0.307358	0.744554	1.14846	0	0
2.03	-2.06496	1.51381	0.56098	0.729696	-0.674523	1.05246	-0.135585	0.0861124	-0.388267	0.0847638	-0.128379	0	0	0.323833	-0.178167	-0.28059	0.566064	-0.137033	0	0	-0.181705	0.0466755	0.0552517	-0.0250232	-0.266654	0.0490738	0.917574	1.5708	0	0	-0.168399	-0.285918	0.305823	0.742079	1.14825	0	0
2.04	-2.10538	1.51352	0.599329	0.730373	-0.686558	1.05121	-0.148444	0.0854048	-0.385354	0.0790684	-0.12882	0	0	0.323783	-0.168618	-0.287598	0.489828	-0.152554	0	0	-0.182033	0.0451462	0.0575452	-0.0225938	-0.269468	0.0419546	0.93744	1.5708	0	0	-0.171959	-0.283158	0.305232	0.73879	1.1463	0	0
2.05	-2.16526	1.51167	0.657638	0.731184	-0.698606	1.04954	-0.158976	0.0849499	-0.38248	0.0742135	-0.128733	0	0	0.324026	-0.157562	-0.286803	0.409637	-0.172841	0	0	-0.180199	0.0444544	0.0596273	-0.0215817	-0.271087	0.0324227	0.957122	1.5708	0	0	-0.174714	-0.280377	0.306708	0.734239	1.14396	0	0
2.06	-2.23372	1.50771	0.725138	0.732104	-0.710737	1.04744	-0.167069	0.0852687	-0.379878	0.0708599	-0.127617	0	0	0.324408	-0.146065	-0.27732	0.326752	-0.191444	0	0	-0.175781	0.0449262	0.061274	-0.0211232	-0.272684	0.0233559	0.9755	1.5708	0	0	-0.176819	-0.277735	0.311223	0.727501	1.14514	0	0
2.07	-2.30664	1.50128	0.797784	0.733146	-0.722959	1.04486	-0.172015	0.0863455	-0.379221	0.0697971	-0.122924	0	0	0.325286	-0.134518	-0.257309	0.241364	-0.215074	0	0	-0.168337	0.0465987	0.0624153	-0.021596	-0.273949	0.0138031	0.993187	1.5708	0	0	-0.177936	-0.275975	0.321136	0.718575	1.14897	0	0
2.08	-2.35957	1.49244	0.85124	0.734321	-0.735338	1.04182	-0.175516	0.0893094	-0.377588	0.0694723	-0.119054	0	0	0.325677	-0.124871	-0.231149	0.15465	-0.228725	0	0	-0.159021	0.0504669	0.0623064	-0.0227855	-0.275534	0.00585603	1.0103	1.5708	0	0	-0.180067	-0.273014	0.327813	0.709997	1.15377	0	0
2.09	-2.39599	1.48273	0.887975	0.735485	-0.747841	1.03855	-0.178072	0.0929038	-0.3764	0.071125	-0.114449	0	0	0.327234	-0.117849	-0.200728	0.0753145	-0.237282	0	0	-0.149419	0.0551715	0.062004	-0.023915	-0.277333	-0.000238404	1.02608	1.5708	0	0	-0.182503	-0.269397	0.332307	0.701928	1.15794	0	0
2.1	-2.41218	1.4724	0.90427	0.736691	-0.760526	1.03504	-0.180458	0.0976288	-0.374913	0.0747992	-0.104536	0	0	0.327968	-0.1141	-0.171191	0.000209429	-0.246223	0	0	-0.140093	0.0614707	0.0629049	-0.027047	-0.277541	-0.0105729	1.04262	1.5708	0	0	-0.183419	-0.267188	0.343166	0.693886	1.15821	0	0
2.11	-2.42103	1.46099	0.912839	0.73797	-0.773433	1.03125	-0.179582	0.102004	-0.37908	0.0863152	-0.0867355	0	0	0.340655	-0.115661	-0.170284	0	-0.220491	0	0	-0.129691	0.0692189	0.0649411	-0.0322092	-0.277954	-0.022055	1.05981	1.5708	0	0	-0.183651	-0.263606	0.352574	0.683789	1.16832	0	0
2.12	-2.41193	1.4541	0.903456	0.739242	-0.786426	1.02779	-0.183832	0.104898	-0.381823	0.0971958	-0.0806773	0	0	0.348553	-0.116203	-0.170943	0	-0.206155	0	0	-0.125248	0.0746378	0.0651755	-0.0334527	-0.279117	-0.0272814	1.07274	1.5708	0	0	-0.184856	-0.26111	0.358567	0.677496	1.17478	0	0
2.13	-2.40116	1.44904	0.891862	0.740592	-0.799576	1.02445	-0.188424	0.105884	-0.385688	0.111561	-0.0753852	0	0	0.355004	-0.11626	-0.171614	0	-0.190121	0	0	-0.122788	0.0790075	0.0655302	-0.0342022	-0.280029	-0.0316849	1.08399	1.5708	0	0	-0.185741	-0.258518	0.363824	0.671326	1.1808	0	0
